<?xml version="1.0" encoding="UTF-8"?>
<svg xmlns="http://www.w3.org/2000/svg" xmlns:xlink="http://www.w3.org/1999/xlink" width="100px" height="89px" viewBox="0 0 100 89" version="1.1">
<g id="surface1">
<path style=" stroke:none;fill-rule:nonzero;fill:rgb(0%,0%,0%);fill-opacity:1;" d="M 47.222656 16.675781 C 51.824219 16.675781 55.554688 12.941406 55.554688 8.335938 C 55.554688 3.730469 51.824219 0 47.222656 0 C 42.621094 0 38.890625 3.730469 38.890625 8.339844 C 38.890625 12.945312 42.621094 16.675781 47.222656 16.675781 Z M 36.40625 62.109375 C 31.9375 59.109375 27.335938 56.332031 22.605469 53.746094 L 10.175781 46.96875 L 0.214844 81.890625 C -0.628906 84.6875 0.929688 87.929688 4.035156 88.777344 C 7.144531 89.625 10.046875 87.910156 10.894531 84.953125 L 17.253906 62.6875 L 27.777344 69.703125 L 27.777344 83.414062 C 27.777344 86.476562 30.273438 88.972656 33.335938 88.972656 C 36.394531 88.972656 38.890625 86.476562 38.890625 83.414062 L 38.890625 66.738281 C 38.890625 64.871094 37.953125 63.132812 36.40625 62.109375 Z M 54.011719 72.3125 C 51.601562 72.3125 49.503906 73.851562 48.746094 76.113281 L 44.449219 88.988281 L 99.984375 88.988281 L 82.296875 53.128906 C 80.320312 49.21875 74.8125 49.019531 72.554688 52.777344 L 67.019531 62.199219 L 55.6875 56.003906 L 51.523438 34.9375 C 50.015625 28.039062 45.695312 22.199219 39.425781 19.070312 C 39.253906 18.980469 39.058594 18.960938 38.882812 18.875 C 38.492188 18.679688 38.058594 18.683594 37.625 18.417969 C 34.984375 17.355469 32.152344 16.683594 29.289062 16.683594 L 16.511719 16.683594 C 14.90625 16.683594 13.375 17.390625 12.3125 18.582031 L 2.597656 29.695312 C 2.46875 29.867188 2.339844 30.0625 2.207031 30.261719 C 0.667969 32.535156 1.6875 35.972656 4.226562 37.339844 L 62.664062 69.378906 L 60.957031 72.3125 Z M 18.386719 35.476562 L 14.304688 33.242188 L 19.1875 27.65625 L 25.15625 27.65625 Z M 34.636719 44.515625 L 40.695312 37.339844 L 43.039062 49.09375 Z M 34.636719 44.515625 "/>
</g>
</svg>
